<svg xmlns="http://www.w3.org/2000/svg" xmlns:xlink="http://www.w3.org/1999/xlink" width="200" zoomAndPan="magnify" viewBox="0 0 150 37.5" height="50" preserveAspectRatio="xMidYMid meet" version="1.0"><defs><g/><clipPath id="b1a3b4ec59"><path d="M 5.742188 3.476562 L 79.789062 3.476562 L 79.789062 33.527344 L 5.742188 33.527344 Z M 5.742188 3.476562 " clip-rule="nonzero"/></clipPath></defs><g clip-path="url(#b1a3b4ec59)"><path fill="#000000" d="M 5.742188 3.476562 L 79.789062 3.476562 L 79.789062 33.527344 L 5.742188 33.527344 Z M 5.742188 3.476562 " fill-opacity="1" fill-rule="nonzero"/></g><g fill="#ffffff" fill-opacity="1"><g transform="translate(6.855919, 23.185299)"><g><path d="M 1.472656 0 L 2.738281 0 L 2.738281 -7.730469 L 6.085938 -2.683594 L 7.125 -2.683594 L 10.46875 -7.714844 L 10.46875 0 L 11.738281 0 L 11.738281 -10.09375 L 10.558594 -10.09375 L 6.621094 -4.109375 L 2.652344 -10.09375 L 1.472656 -10.09375 Z M 1.472656 0 "/></g></g></g><g fill="#ffffff" fill-opacity="1"><g transform="translate(21.158433, 23.185299)"><g><path d="M 6.058594 0.1875 C 9.128906 0.1875 11.292969 -1.976562 11.292969 -5.046875 C 11.292969 -8.121094 9.128906 -10.28125 6.058594 -10.28125 C 2.984375 -10.28125 0.835938 -8.121094 0.835938 -5.046875 C 0.835938 -1.976562 2.984375 0.1875 6.058594 0.1875 Z M 2.132812 -5.046875 C 2.132812 -7.398438 3.734375 -9.015625 6.058594 -9.015625 C 8.378906 -9.015625 9.980469 -7.398438 9.980469 -5.046875 C 9.980469 -2.695312 8.378906 -1.082031 6.058594 -1.082031 C 3.734375 -1.082031 2.132812 -2.695312 2.132812 -5.046875 Z M 2.132812 -5.046875 "/></g></g></g><g fill="#ffffff" fill-opacity="1"><g transform="translate(34.365225, 23.185299)"><g><path d="M 5.941406 0.1875 C 8.394531 0.1875 10.382812 -1.296875 10.988281 -3.546875 L 9.648438 -3.546875 C 9.128906 -2.035156 7.703125 -1.082031 5.984375 -1.082031 C 3.734375 -1.082031 2.132812 -2.710938 2.132812 -5.046875 C 2.132812 -7.382812 3.734375 -9.015625 5.984375 -9.015625 C 7.660156 -9.015625 9.027344 -8.121094 9.546875 -6.664062 L 10.902344 -6.664062 C 10.238281 -8.882812 8.320312 -10.28125 5.941406 -10.28125 C 2.972656 -10.28125 0.835938 -8.089844 0.835938 -5.046875 C 0.835938 -2.003906 2.972656 0.1875 5.941406 0.1875 Z M 5.941406 0.1875 "/></g></g></g><g fill="#ffffff" fill-opacity="1"><g transform="translate(47.225999, 23.185299)"><g><path d="M 3.910156 0 L 5.175781 0 L 5.175781 -8.882812 L 8.582031 -8.882812 L 8.582031 -10.09375 L 0.492188 -10.09375 L 0.492188 -8.882812 L 3.910156 -8.882812 Z M 3.910156 0 "/></g></g></g><g fill="#ffffff" fill-opacity="1"><g transform="translate(57.405135, 23.185299)"><g><path d="M 0.246094 0 L 1.601562 0 L 2.523438 -2.292969 L 7.441406 -2.292969 L 8.394531 0 L 9.734375 0 L 5.582031 -10.09375 L 4.398438 -10.09375 Z M 3.015625 -3.476562 L 4.988281 -8.320312 L 6.964844 -3.476562 Z M 3.015625 -3.476562 "/></g></g></g><g fill="#ffffff" fill-opacity="1"><g transform="translate(68.478147, 23.185299)"><g><path d="M 1.472656 0 L 2.738281 0 L 2.738281 -3.621094 L 4.960938 -3.621094 L 7.425781 0 L 8.957031 0 L 6.417969 -3.75 C 7.890625 -4.109375 8.796875 -5.222656 8.796875 -6.851562 C 8.796875 -8.855469 7.414062 -10.09375 5.320312 -10.09375 L 1.472656 -10.09375 Z M 2.738281 -4.832031 L 2.738281 -8.882812 L 5.175781 -8.882812 C 6.648438 -8.882812 7.5 -8.132812 7.5 -6.851562 C 7.5 -5.566406 6.648438 -4.832031 5.175781 -4.832031 Z M 2.738281 -4.832031 "/></g></g></g><g fill="#000000" fill-opacity="1"><g transform="translate(89.903781, 23.262964)"><g><path d="M 3.75 0 L 6.648438 0 L 6.648438 -3.519531 L 10.324219 -10.09375 L 7.023438 -10.09375 L 5.191406 -6.476562 L 4.414062 -8.003906 L 3.347656 -10.09375 L 0.0703125 -10.09375 L 3.75 -3.503906 Z M 3.75 0 "/></g></g></g><g fill="#000000" fill-opacity="1"><g transform="translate(100.301301, 23.262964)"><g><path d="M 5.984375 0.214844 C 9.199219 0.214844 11.480469 -1.960938 11.480469 -5.046875 C 11.480469 -8.132812 9.199219 -10.3125 5.984375 -10.3125 C 2.769531 -10.3125 0.492188 -8.132812 0.492188 -5.046875 C 0.492188 -1.960938 2.769531 0.214844 5.984375 0.214844 Z M 3.445312 -5.046875 C 3.445312 -6.5625 4.5 -7.613281 5.984375 -7.613281 C 7.484375 -7.613281 8.523438 -6.5625 8.523438 -5.046875 C 8.523438 -3.535156 7.484375 -2.480469 5.984375 -2.480469 C 4.5 -2.480469 3.445312 -3.535156 3.445312 -5.046875 Z M 3.445312 -5.046875 "/></g></g></g><g fill="#000000" fill-opacity="1"><g transform="translate(112.285131, 23.262964)"><g><path d="M 1.066406 0 L 3.953125 0 L 3.953125 -5.148438 L 7.789062 0 L 10.152344 0 L 10.152344 -10.09375 L 7.28125 -10.09375 L 7.28125 -4.976562 L 3.445312 -10.09375 L 1.066406 -10.09375 Z M 1.066406 0 "/></g></g></g><g fill="#000000" fill-opacity="1"><g transform="translate(123.519069, 23.262964)"><g><path d="M 1.066406 0 L 8.105469 0 L 8.105469 -2.695312 L 3.980469 -2.695312 L 3.980469 -10.09375 L 1.066406 -10.09375 Z M 1.066406 0 "/></g></g></g><g fill="#000000" fill-opacity="1"><g transform="translate(131.98418, 23.262964)"><g><path d="M 1.066406 0 L 3.980469 0 L 3.980469 -10.09375 L 1.066406 -10.09375 Z M 1.066406 0 "/></g></g></g></svg>